<?xml version="1.0" encoding="UTF-8"?>
<svg version="1.1" xmlns="http://www.w3.org/2000/svg" width="420" height="420">
<path d="M0 0 C138.6 0 277.2 0 420 0 C420 138.6 420 277.2 420 420 C281.4 420 142.8 420 0 420 C0 281.4 0 142.8 0 0 Z " fill="#F0F0F0" transform="translate(0,0)"/>
<path d="M0 0 C23.43 0 46.86 0 71 0 C71 46.53 71 93.06 71 141 C47.57 141 24.14 141 0 141 C0 94.47 0 47.94 0 0 Z " fill="#B3E396" transform="translate(175,245)"/>
<path d="M0 0 C23.43 0 46.86 0 71 0 C71 23.43 71 46.86 71 71 C47.57 71 24.14 71 0 71 C0 47.57 0 24.14 0 0 Z " fill="#B3E396" transform="translate(315,315)"/>
<path d="M0 0 C23.43 0 46.86 0 71 0 C71 23.43 71 46.86 71 71 C47.57 71 24.14 71 0 71 C0 47.57 0 24.14 0 0 Z " fill="#B3E396" transform="translate(35,315)"/>
<path d="M0 0 C23.43 0 46.86 0 71 0 C71 23.43 71 46.86 71 71 C47.57 71 24.14 71 0 71 C0 47.57 0 24.14 0 0 Z " fill="#B3E396" transform="translate(315,175)"/>
<path d="M0 0 C23.43 0 46.86 0 71 0 C71 23.43 71 46.86 71 71 C47.57 71 24.14 71 0 71 C0 47.57 0 24.14 0 0 Z " fill="#B3E396" transform="translate(35,175)"/>
<path d="M0 0 C23.43 0 46.86 0 71 0 C71 23.43 71 46.86 71 71 C47.57 71 24.14 71 0 71 C0 47.57 0 24.14 0 0 Z " fill="#B3E396" transform="translate(175,35)"/>
</svg>
